<svg enable-background="new 0 0 5000 3500" viewBox="0 0 5000 3500" xmlns="http://www.w3.org/2000/svg"><path d="m2027.7 3055.3h1136" fill="none" stroke="#ffcf2d" stroke-linecap="round" stroke-miterlimit="10" stroke-width="6"/><path d="m2595.3 2050.4v445c0 137 71 264.2 187.6 336.1l164.1 101.2" style="fill:none;stroke:#66b0f0;stroke-width:6;stroke-linecap:round;stroke-linejoin:round;stroke-miterlimit:10"/><path d="m2506.4 2050.4v445c0 137-71 264.2-187.6 336.1l-164.1 101.2" style="fill:none;stroke:#66b0f0;stroke-width:6;stroke-linecap:round;stroke-linejoin:round;stroke-miterlimit:10"/><path d="m2446.7 2050.4h200.1c17.7 0 32-14.3 32-32v-50.5h-264.1v50.5c0 17.7 14.3 32 32 32z" fill="#fff" stroke="#66b0f0" stroke-miterlimit="10" stroke-width="6"/><path d="m2954.4 3055.3c-40.6 0-73.5-32.9-73.5-73.5s32.9-73.5 73.5-73.5 73.5 32.9 73.5 73.5-32.9 73.5-73.5 73.5" fill="#fff" stroke="#ffcf2d" stroke-miterlimit="10" stroke-width="6"/><path d="m2153.1 3055.3c-40.6 0-73.5-32.9-73.5-73.5s32.9-73.5 73.5-73.5 73.5 32.9 73.5 73.5-32.9 73.5-73.5 73.5" fill="#fff" stroke="#ffcf2d" stroke-miterlimit="10" stroke-width="6"/><path d="m2153.1 3039.8c-32 0-58-26-58-58s26-58 58-58 58 26 58 58-26 58-58 58" fill="#fff" stroke="#ffcf2d" stroke-miterlimit="10" stroke-width="6"/><path d="m2954.1 3039.8c-32 0-58-26-58-58s26-58 58-58 58 26 58 58-26 58-58 58" fill="#fff" stroke="#ffcf2d" stroke-miterlimit="10" stroke-width="6"/><path d="m2442.8 2710.4s95.2-69.8 216.3 0" style="fill:none;stroke:#66b0f0;stroke-width:6;stroke-linecap:round;stroke-linejoin:round;stroke-miterlimit:10"/><path d="m2593 1928-92 941.3h283.5l233.1-847c42.9-138.2-49.4-278.8-193.1-279.1h-20c-106.4-.3-196.6 78.6-211.5 184.8z" fill="#31a1a9"/><path d="m2556.4 2869.3h149.4l-23.5 76.9c-29.5-29.4-70.6-50.6-115.5-53.3-4.2-.3-8.3-.4-12.4-.4z" fill="#e57281"/><path d="m2727.8 3054.7c7.8-72.4-68.6-156.2-161.1-161.9s-149.6 55.4-154.1 128c-.7 11-1.7 24.4.7 34.2z" fill="#fff" stroke="#fe5244" stroke-miterlimit="10" stroke-width="6"/><path d="m2415.3 3028.4 312.5 3.7" fill="none" stroke="#fe5244" stroke-miterlimit="10" stroke-width="6"/><path d="m2673.6 2869.3 236.5-144-528.8-885.9c-66.9-106.1-236.7-138.9-343.8-73.7-123.5 75.2-147.7 244.3-50.3 351.1z" fill="#3fb1b5"/><path d="m2674.6 2865.3 237.5-142-529.8-883.9c-66.9-106.1-236.7-138.9-343.8-73.7-123.5 75.2-147.7 244.3-50.3 351.1z" fill="none" stroke="#fff" stroke-miterlimit="10" stroke-width="6"/><path d="m2906.4 2719c-10.5-17.4-72 .3-137.4 39.7-65.4 39.3-109.7 86.7-99.2 104.1s71.8-1.7 137.2-41c65.3-39.3 109.8-85.3 99.4-102.8z" fill="#73325a"/><path d="m2892 2831.6-110.4 69.4-31.2-35-9.5-10.7-39.6-44.4c17-17.4 40.3-35.8 67.8-52.2 22.2-13.3 44.1-23.9 63.9-31.1l30.9 54.3 6.8 11.9z" fill="#e57281"/><path d="m3066.2 2906.9-275 148.3c-6.9-7.4-12.8-16.1-17.5-26-4-8.3-7.1-17-9.5-25.8-16.2-60.8 6.7-130.5 79.8-165.3 64.5-30.7 144.8-13.1 191.2 27.3 13.7 12.1 24.5 26.2 31 41.5z" fill="#fff" stroke="#fe5244" stroke-miterlimit="10" stroke-width="6"/><path d="m3051.5 2884.4-275.1 148.3" fill="none" stroke="#fe5244" stroke-linecap="round" stroke-miterlimit="10" stroke-width="6"/><path d="m2863.7 2781.8c-15.8 13.2-35.2 27-56.9 40-23.2 14-46 25.4-66.1 33.5l-41.6-44.4c17-17.4 42.3-35.8 69.8-52.2 22.2-13.3 44.1-24.9 63.9-32.1z" fill="#9a3b82"/><path d="m2900.3 2703.6c-10.5-17.4-76.9-.1-143.4 39.9s-108.7 86.9-98.2 104.3" fill="none" stroke="#fff" stroke-miterlimit="10" stroke-width="6"/><path d="m3820.9 1967.9c26.1 0 47.3-21.2 47.3-47.3v-181c0-26.1-21.2-47.3-47.3-47.3h-2630.4c-26.1 0-47.3 21.2-47.3 47.3v181c0 26.1 21.2 47.3 47.3 47.3z" fill="#9a3b82"/><path d="m3820.1 1651.3h-2628.9c-26.1 0-47.3 21.2-47.3 47.3v181c0 26.1 21.2 47.3 47.3 47.3h2628.9c26.1 0 47.3-21.2 47.3-47.3v-181c0-26.1-21.2-47.3-47.3-47.3z" fill="#fff" stroke="#ffcf2d" stroke-miterlimit="10" stroke-width="6"/><path d="m3683.2 1927.1v1128.6" fill="none" stroke="#ffcf2d" stroke-linecap="round" stroke-miterlimit="10" stroke-width="6"/><path d="m1388.3 1927.1v1128.6" fill="none" stroke="#ffcf2d" stroke-linecap="round" stroke-miterlimit="10" stroke-width="6"/><path d="m1301.9 2774.8-4.2 2.7-152.6-235.1-45.9 3.5c-9.8.8-17.6-8.1-15.6-17.8 2.1-9.6 12.8-14.6 21.5-9.8l37.7 20.7-27.7-42.8-45.9 3.6c-9.8.8-17.6-8.2-15.5-17.8s12.8-14.6 21.5-9.8l37.7 20.6-27.7-42.8-45.9 3.6c-9.8.8-17.6-8.2-15.5-17.8s12.8-14.6 21.5-9.8l37.7 20.7-16.7-25.7-31-26.5c-7.5-6.4-6.7-18.2 1.5-23.6 8.3-5.4 19.4-1.3 22.2 8.2l11.5 39.1 17.2 26.5-3.6-44c-.8-9.8 8.1-17.6 17.7-15.6s14.6 12.8 9.9 21.4l-22.2 41 28.1 43.3-3.6-43.9c-.8-9.8 8.1-17.6 17.7-15.6s14.6 12.8 9.9 21.4l-22.2 41 28.1 43.3-3.6-43.9c-.8-9.8 8.1-17.7 17.7-15.6 9.6 2 14.6 12.8 9.9 21.4l-22.2 41z" fill="#9a3b82"/><path d="m1558.3 2691.7c-73.3 147.7-172.3 250.4-230.8 243.3-4.8-.6-9.3-1.9-13.5-4-55.6-27.6-36.4-179.5 43-339.3 34-68.5 73.5-127.2 111.9-169.9 51.3-56.9 100.6-85.2 132.4-69.4 55.6 27.6 36.3 179.5-43 339.3z" fill="#9a3b82"/><path d="m1466.5 2575c-16.3 187.2-76.2 338.2-138.9 360-4.8-.6-9.3-1.9-13.5-4-55.6-27.6-36.4-179.5 43-339.3 34-68.5 73.5-127.2 111.9-169.9 2.8 47.1 2.2 99-2.5 153.2z" fill="#ffcf2d"/><path d="m1601.3 2352.4-273.7 582.6" fill="none" stroke="#ffcf2d" stroke-miterlimit="10" stroke-width="6"/><path d="m1596.1 2784.4-38.7 13-25.8 18.1 43.8-5.2c9.8-1.2 17.9 7.4 16.3 17.1-1.7 9.7-12.2 15.1-21.1 10.7l-41.8-20.7-42.3 29.7 43.8-5.2c9.8-1.2 17.9 7.4 16.3 17.1-1.7 9.7-12.2 15.1-21.1 10.7l-41.8-20.7-42.2 29.7 43.8-5.2c9.8-1.2 17.9 7.4 16.2 17.1s-12.2 15.1-21.1 10.7l-41.8-20.7-77.3 54.3h-8.7l83.3-58.5-5.2-45.7c-1.1-9.8 7.5-17.9 17.2-16.2s15 12.3 10.6 21.1l-19.3 38.5 41.7-29.3-5.2-45.7c-1.1-9.8 7.5-17.9 17.2-16.2s15 12.3 10.6 21.1l-19.2 38.4 41.7-29.3-5.2-45.7c-1.1-9.8 7.5-17.9 17.2-16.2s15 12.3 10.6 21.1l-19.3 38.5 25.1-17.6 25.3-32c6.1-7.7 18-7.4 23.6.7 5.9 8.1 2.2 19.4-7.2 22.5z" fill="#ffcf2d"/><path d="m1282.4 2927.2c-5 1.7-10.3 2.9-15.7 3.6-63 8.2-150-50.6-202.6-139.9-57.1-97-51.9-193.2 11.6-215 20.6-7.1 44.9-5.4 70.1 3.4 52.6 18.3 109.6 67.3 148.2 132.8 57 97.1 51.8 193.3-11.6 215.1z" fill="#fff" stroke="#ffcf2d" stroke-miterlimit="10" stroke-width="6"/><path d="m1282.4 2927.2c-5 1.7-10.3 2.9-15.7 3.6-58.2-26.4-108.8-138.2-119.5-274-2.1-26.8-2.5-52.8-1.4-77.5 52.6 18.3 109.6 67.3 148.2 132.8 57 97.1 51.8 193.3-11.6 215.1z" fill="#ffcf2d"/><path d="m1051.6 2590 215 340.8" fill="none" stroke="#ffcf2d" stroke-miterlimit="10" stroke-width="6"/><ellipse cx="1308" cy="2564.1" fill="#fff" rx="126" ry="374.9" stroke="#ffcf2d" stroke-miterlimit="10" stroke-width="6"/><path d="m1308 2189.1v749.9" fill="none" stroke="#ffcf2d" stroke-miterlimit="10" stroke-width="6"/><path d="m1388.3 2279-80.3 107.6-68.1-134.8" fill="none" stroke="#ffcf2d" stroke-linecap="round" stroke-miterlimit="10" stroke-width="6"/><path d="m1414.4 2370.2-107.2 147.4-96.4-186.5" fill="none" stroke="#ffcf2d" stroke-linecap="round" stroke-miterlimit="10" stroke-width="6"/><path d="m1431.1 2475.4-124.9 172.2-114.1-220" fill="none" stroke="#ffcf2d" stroke-linecap="round" stroke-miterlimit="10" stroke-width="6"/><path d="m1438.9 2615.8-132.1 184.8-124.5-236.2" fill="none" stroke="#ffcf2d" stroke-linecap="round" stroke-miterlimit="10" stroke-width="6"/><path d="m1494.8 3055.7h-373.9c-28.8 0-52.2-23.4-52.2-52.2v-16.3c0-28.8 23.4-52.2 52.2-52.2h373.9c28.8 0 52.2 23.4 52.2 52.2v16.3c0 28.9-23.4 52.2-52.2 52.2z" fill="#fff" stroke="#66b0f0" stroke-miterlimit="10" stroke-width="6"/><path d="m3696 1756.4c0 14.9-11.9 27-26.5 27h-407.3c-14.7 0-26.5-12.1-26.5-27 0-14.9 11.9-27 26.5-27h407.3c14.6 0 26.5 12.1 26.5 27z" fill="#fe5244"/><path d="m3524.1 1475.2h-166.7v116h322c-20.4-68.8-83.6-116-155.3-116z" fill="#fff" stroke="#ffcf2d" stroke-miterlimit="10" stroke-width="6"/><path d="m3387.4 1475.2v116l-69 .1v-116.1z" fill="#ffcf2d" stroke="#ffcf2d" stroke-miterlimit="10" stroke-width="6"/><path d="m3934.7 1588.9-255.3 2.3s63.9-86.6 239.3-63.7c0 0-137.2-28.6-276.4 0" fill="none" stroke="#ffcf2d" stroke-miterlimit="10" stroke-width="6"/><path d="m3679.4 1591.2s111.9-61.5 248.3-31.7" fill="none" stroke="#ffcf2d" stroke-miterlimit="10" stroke-width="6"/><path d="m3707.9 1686.1c0 10.9 1.7 20.8 4.4 28.1h-122.5c-6.3 0-11.5-5.5-11.5-12.2v-31.7c0-6.8 5.1-12.2 11.5-12.2h122.5c-2.7 7.2-4.4 17.1-4.4 28z" fill="#ffcf2d"/><path d="m3578.4 1670.3v31.7c0 6.8 5.5 12.2 12.2 12.2h131.6v2.3c0 5.6-4.5 10.1-10.1 10.1h-460.3c-5.6 0-10.1-4.5-10.1-10.1v-60.8c0-5.6 4.5-10.1 10.1-10.1h460.3c5.6 0 10.1 4.5 10.1 10.1v2.3h-131.6c-6.7.1-12.2 5.5-12.2 12.3z" fill="#fff"/><path d="m3578.4 1670.3v31.7c0 6.8 5.5 12.2 12.2 12.2h131.6v2.3c0 5.6-4.5 10.1-10.1 10.1h-460.3c-5.6 0-10.1-4.5-10.1-10.1v-60.8c0-5.6 4.5-10.1 10.1-10.1h460.3c5.6 0 10.1 4.5 10.1 10.1v2.3h-131.6c-6.7.1-12.2 5.5-12.2 12.3z" fill="none" stroke="#ffcf2d" stroke-miterlimit="10" stroke-width="6"/><path d="m3406.9 1805.1c-4.8 4.5-7.8 12.7-7.8 19.6 0 13.7 12 27.8 26.8 27.8h368.8c0 6.4-5.2 11.7-11.7 11.7h-445.1c-11.9 0-22.7-4.5-30.5-11.7s-12.7-17.2-12.7-28.3c0-22.1 19.3-40 43.2-40h445.1c6.4 0 11.7 5.2 11.7 11.7v2.1h-368.8c-7.5-.1-14.2 2.7-19 7.1z" fill="#ffcf2d"/><path d="m3768 1797.9v53.6h26.6v4.5h-370c-4.1 0-8.1-.8-11.7-2.3-3.9-1.6-7.5-3.9-10.4-6.9-5.7-5.7-9.2-13.5-9.2-22.1 0-17.3 14-31.3 31.3-31.3h370v4.5z" fill="#fe5244"/><path d="m3778.3 1797.9v53.6h-352.4c-14.8 0-26.8-12-26.8-26.8 0-7.4 3-14.1 7.8-19 4.8-4.8 11.5-7.8 18.9-7.8z" fill="#fff"/><path d="m3778.3 1797.9v53.6" fill="none" stroke="#fe5244" stroke-miterlimit="10" stroke-width="5"/><path d="m3475 1835.9v44.7h-30.9v-39c0-9.3-7.5-16.9-16.9-16.9h-13.8v-5.7h44.7c9.4 0 16.9 7.6 16.9 16.9z" fill="#fe5244"/><path d="m3796.1 1593.7h-525.4c-13.6 0-24.6 11-24.6 24.6.1 13.5 11 24.5 24.6 24.5h525.4c13.6 0 24.6-11 24.6-24.6-.1-13.5-11.1-24.5-24.6-24.5z" fill="#66b0f0"/><path d="m3676.9 1642.9h-5.3c.6 1.6 2.1 5.6 5.4 5.6 2 0 11.8-1.5 11.8-30.2 0-10.2-1.2-18-3.6-23.3-2.9-6.3-6.7-7-8.1-7-3.4 0-4.9 4.1-5.5 5.7h5.3c.2-.4.4-.6.5-.7 1.8.5 6.6 5.5 6.6 25.3s-4.8 24.7-6.6 25.3c-.2-.2-.4-.4-.5-.7z" fill="#9a3b82"/><path d="m3720.3 1642.9h-5.3c.6 1.6 2.1 5.6 5.4 5.6 2 0 11.8-1.5 11.8-30.2 0-10.2-1.2-18-3.6-23.3-2.9-6.3-6.7-7-8.1-7-3.4 0-4.9 4.1-5.5 5.7h5.3c.2-.4.4-.6.5-.7 1.8.5 6.6 5.5 6.6 25.3s-4.8 24.7-6.6 25.3c-.1-.2-.3-.4-.5-.7z" fill="#9a3b82"/><path d="m3763.8 1642.9h-5.3c.6 1.6 2.1 5.6 5.4 5.6 2.8 0 11.8-2.2 11.8-30.2 0-28.1-9-30.2-11.8-30.2-3.4 0-4.9 4.1-5.5 5.7h5.3c.2-.4.4-.6.5-.7 2 .5 6.6 5.7 6.6 25.3 0 12-1.7 18.2-3.2 21.4-1.2 2.6-2.5 3.7-3.4 3.9-.1-.3-.2-.5-.4-.8z" fill="#9a3b82"/><path d="m3546.4 1642.9h-5.3c.6 1.6 2.1 5.6 5.4 5.6 2 0 11.8-1.5 11.8-30.2 0-28.1-9-30.2-11.8-30.2-3.4 0-4.9 4.1-5.5 5.7h5.3c.2-.4.4-.6.5-.7 2 .5 6.6 5.7 6.6 25.3 0 19.8-4.8 24.7-6.6 25.3 0-.3-.2-.5-.4-.8z" fill="#9a3b82"/><path d="m3589.9 1642.9h-5.3c.6 1.6 2.1 5.6 5.4 5.6 1.9 0 5.4-.8 8.1-6.4 2.4-5.1 3.7-13.1 3.7-23.8s-1.2-18.7-3.7-23.8c-2.7-5.6-6.2-6.4-8.1-6.4-3.4 0-4.9 4.1-5.5 5.7h5.3c.2-.4.4-.6.5-.7 1.2.2 2.4 1.5 3.4 3.6 1.4 3 3.2 9.2 3.2 21.7 0 12.4-1.7 18.6-3.2 21.7-1 2.1-2.3 3.4-3.4 3.6-.1-.3-.2-.5-.4-.8z" fill="#9a3b82"/><path d="m3633.4 1642.9h-5.3c.6 1.6 2.1 5.6 5.4 5.6 2.8 0 11.8-2.2 11.8-30.2 0-28.8-9.8-30.2-11.8-30.2-3.4 0-4.9 4.1-5.5 5.7h5.3c.2-.4.4-.6.5-.7 1.8.5 6.6 5.5 6.6 25.3 0 19.6-4.6 24.8-6.6 25.3-.1-.3-.2-.5-.4-.8z" fill="#9a3b82"/><path d="m3416 1642.9h-5.3c.6 1.6 2.1 5.6 5.4 5.6 1.5 0 5.3-.7 8.1-7 2.4-5.2 3.6-13.1 3.6-23.3 0-9.4-1.3-17.3-3.6-22.7-2.1-4.8-5.1-7.6-8.2-7.6-3.4 0-4.9 4.1-5.5 5.7h5.3c.2-.3.3-.6.4-.7.6.3 2 1.4 3.4 4.6 1.5 3.3 3.2 9.6 3.2 20.6 0 19.8-4.8 24.7-6.6 25.3.1 0 0-.2-.2-.5z" fill="#9a3b82"/><path d="m3459.5 1642.9h-5.3c.6 1.6 2.1 5.6 5.4 5.6 1.5 0 5.3-.7 8.1-7 2.4-5.2 3.6-13.1 3.6-23.3 0-28.1-9-30.2-11.8-30.2-3.4 0-4.9 4.1-5.5 5.7h5.3c.2-.4.4-.6.5-.7 2 .5 6.6 5.7 6.6 25.3 0 19.8-4.8 24.7-6.6 25.3 0-.2-.1-.4-.3-.7z" fill="#9a3b82"/><path d="m3503 1642.9h-5.3c.6 1.6 2.1 5.6 5.4 5.6 2.8 0 11.8-2.2 11.8-30.2 0-10.7-1.2-18.7-3.7-23.8-2.7-5.6-6.2-6.4-8.1-6.4-3.4 0-4.9 4.1-5.5 5.7h5.3c.2-.4.4-.6.5-.7 1.2.2 2.4 1.5 3.4 3.6 1.4 3 3.2 9.2 3.2 21.7 0 19.6-4.6 24.8-6.6 25.3-.1-.3-.3-.5-.4-.8z" fill="#9a3b82"/><path d="m3285.6 1642.9h-5.3c.6 1.6 2.1 5.6 5.4 5.6 3.1 0 6-2.8 8.2-7.6 2.4-5.4 3.6-13.2 3.6-22.7 0-11.1-2-18.1-3.6-22-2.2-5.2-5.2-8.2-8.2-8.2-3.4 0-4.9 4.1-5.5 5.7h5.3c.2-.3.3-.5.4-.7.7.4 2.2 1.8 3.6 5.6 1.4 3.5 3 9.7 3 19.6 0 11.1-1.7 17.3-3.2 20.7-1.4 3.2-2.8 4.3-3.4 4.6 0-.1-.2-.3-.3-.6z" fill="#9a3b82"/><path d="m3329 1642.9h-5.3c.6 1.6 2.1 5.6 5.4 5.6 3.1 0 6-2.8 8.2-7.6 2.4-5.4 3.6-13.2 3.6-22.7 0-19.6-6.1-30.2-11.8-30.2-3.4 0-4.9 4.1-5.5 5.7h5.3c.2-.3.3-.5.4-.7.7.4 2.1 1.8 3.6 5.4 1.4 3.4 3 9.7 3 19.8 0 11.1-1.7 17.3-3.2 20.7-1.4 3.2-2.8 4.3-3.4 4.6 0-.1-.1-.3-.3-.6z" fill="#9a3b82"/><path d="m3372.5 1642.9h-5.3c.6 1.6 2.1 5.6 5.4 5.6 1.5 0 5.2-.7 8.2-7.4 2.4-5.4 3.6-13.1 3.6-22.8 0-9.4-1.3-17.3-3.6-22.7-2.1-4.8-5.1-7.6-8.2-7.6-3.4 0-4.9 4.1-5.5 5.7h5.3c.2-.3.3-.6.4-.7.6.3 2 1.4 3.4 4.6 1.5 3.3 3.2 9.6 3.2 20.6 0 11.3-1.7 17.5-3.2 20.8-1.4 3.1-2.8 4.2-3.4 4.4 0 0-.1-.2-.3-.5z" fill="#9a3b82"/><path d="m3610.5 890.8h-350.6c-20.3 0-36.7-16.4-36.7-36.7v-350.6c0-20.3 16.4-36.7 36.7-36.7h350.6c20.3 0 36.7 16.4 36.7 36.7v350.6c0 20.3-16.5 36.7-36.7 36.7z" fill="#ffcf2d"/><path d="m3584.9 867.3h-357.5c-20.3 0-36.7-16.4-36.7-36.7v-357.5c0-20.3 16.4-36.7 36.7-36.7h357.5c20.3 0 36.7 16.4 36.7 36.7v357.5c0 20.3-16.4 36.7-36.7 36.7z" fill="#fff" stroke="#ffcf2d" stroke-miterlimit="10" stroke-width="6"/><circle cx="3406.2" cy="651.8" fill="none" r="165" stroke="#ffcf2d" stroke-miterlimit="10" stroke-width="6"/><path d="m3313.4 581 92.8 70.8-22.8-69.9" fill="none" stroke="#ffcf2d" stroke-linecap="round" stroke-miterlimit="10" stroke-width="6"/><path d="m3112.4 1926.9h-282.7l-118.7-142.6h275.9z" fill="#ffcf2d"/><path d="m3265.5 1934.3v88l-224 .9c-28.7.1-52-23.1-52-51.8v-27.3c0-18.2-6.7-35.7-18.7-49.2l-73.9-83h275.9l70.6 69.7c14.2 13.9 22.1 32.8 22.1 52.7z" fill="#fff" stroke="#66b0f0" stroke-miterlimit="10" stroke-width="6"/><path d="m3366.3 1991.3c-9.5 19-29.1 32-51.8 32h-276c22.6 0 42.2-13 51.8-32z" fill="#fff" stroke="#66b0f0" stroke-miterlimit="10" stroke-width="6"/><path d="m3195.2 1443.2-168.4-295.8c-40.2-70.7-115.3-114.3-196.6-114.3h-630.7l22.1-47.7c-1.8 3.9-11.3 4.9-25.8 2.9-22.2-3-56-12.7-92-28.7-20.6-9.1-39.3-18.6-54.8-27.4-29.3-16.7-47-31.3-44.1-37.8l-322 528.1c-70.7 103.1 3.1 243.2 128.1 243.2 16.8 0 33.4-2.7 49.2-8s30.7-13.1 44.1-23.2l247.3-185.9c14.9-11.2 36.2-2.5 39.2 15.8l32.3 201.3h842.6c114.3.1 186-123.3 129.5-222.5zm-374.8 23.1 27-61.4c4.6-10.5 19.4-10.7 24.2-.3l29.3 61.8h-80.5z" fill="#fe5244"/><path d="m2299.9 1032.9c0-51.7 106.7-115.6 236.1-131.9 194.1-24.3 236.1 80.2 236.1 131.9" fill="none" stroke="#fe5244" stroke-miterlimit="10" stroke-width="6"/><path d="m2749.7 1033.8c0 46.3-213.7 141.1-213.7 141.1s-213.7-94.8-213.7-141.1 101.6-99.9 218.7-114.2c168.5-20.6 208.7 67.8 208.7 114.2z" fill="#fe5244"/><path d="m2749.7 1033.8c0 46.3-213.7 141.1-213.7 141.1s-213.7-94.8-213.7-141.1c0-.2 0-.4 0-.6h427.4z" fill="#fff"/><g stroke-miterlimit="10"><path d="m2772 1032.8c0 51.1-236 167.3-236 167.3s-236-116.1-236-167.3" fill="none" stroke="#fff" stroke-width="6"/><path d="m2718.1 1663.5c13.2 0 23.9-43.7 23.9-97.5s-10.7-97.5-23.9-97.5" fill="none" stroke="#fff" stroke-linecap="round" stroke-width="5"/><path d="m2216.7 1005-185.1 370.1" fill="none" stroke="#fff" stroke-width="5"/><path d="m2176.5 1366.6 30.6 201.4" fill="none" stroke="#fff" stroke-linecap="round" stroke-width="5"/><path d="m2526 1223.8h20" fill="none" stroke="#fff" stroke-linecap="round" stroke-width="5"/><path d="m2526 1247.6h20" fill="none" stroke="#fff" stroke-linecap="round" stroke-width="5"/><path d="m2526 1271.3h20" fill="none" stroke="#fff" stroke-linecap="round" stroke-width="5"/><path d="m2526 1295h20" fill="none" stroke="#fff" stroke-linecap="round" stroke-width="5"/><path d="m2526 1318.7h20" fill="none" stroke="#fff" stroke-linecap="round" stroke-width="5"/><path d="m2526 1342.5h20" fill="none" stroke="#fff" stroke-linecap="round" stroke-width="5"/><path d="m2526 1343.6h20" fill="none" stroke="#fff" stroke-linecap="round" stroke-width="5"/><path d="m2526 1367.3h20" fill="none" stroke="#fff" stroke-linecap="round" stroke-width="5"/><path d="m2526 1391h20" fill="none" stroke="#fff" stroke-linecap="round" stroke-width="5"/><path d="m2526 1413.6h20" fill="none" stroke="#fff" stroke-linecap="round" stroke-width="5"/><path d="m2526 1437.4h20" fill="none" stroke="#fff" stroke-linecap="round" stroke-width="5"/><path d="m2526 1461.1h20" fill="none" stroke="#fff" stroke-linecap="round" stroke-width="5"/><path d="m2526 1484.8h20" fill="none" stroke="#fff" stroke-linecap="round" stroke-width="5"/><path d="m2526 1508.5h20" fill="none" stroke="#fff" stroke-linecap="round" stroke-width="5"/><path d="m2526 1532.3h20" fill="none" stroke="#fff" stroke-linecap="round" stroke-width="5"/><path d="m2526 1556h20" fill="none" stroke="#fff" stroke-linecap="round" stroke-width="5"/><path d="m2526 1579.7h20" fill="none" stroke="#fff" stroke-linecap="round" stroke-width="5"/><path d="m2526 1603.4h20" fill="none" stroke="#fff" stroke-linecap="round" stroke-width="5"/><path d="m2526 1604.6h20" fill="none" stroke="#fff" stroke-linecap="round" stroke-width="5"/><path d="m2526 1628.3h20" fill="none" stroke="#fff" stroke-linecap="round" stroke-width="5"/><path d="m2526 1652h20" fill="none" stroke="#fff" stroke-linecap="round" stroke-width="5"/><path d="m2523.9 1191.5v376.5" fill="none" stroke="#fff" stroke-width="5"/><path d="m2706.5 1468.3h240.5" fill="none" stroke="#fff" stroke-linecap="round" stroke-width="5"/><path d="m2037.3 1861.8h767.9l-72.2-195.3h-612.5z" fill="#fff" stroke="#66b0f0" stroke-width="6"/></g><path d="m2037.3 1861.8c0-27.6 73.2-77.5 192.1-84.3 127.3-7.2 194 72.8 192.1 84.3z" fill="#66b0f0"/><path d="m2421.4 1861.8s-33.8-158-330.5-125.8l64.1-155.9s243-44.2 266.5 86.4z" fill="#fff" stroke="#66b0f0" stroke-linejoin="round" stroke-miterlimit="10" stroke-width="6"/><path d="m2800.7 1849.5c-17.7-24.5-85.9-50.1-187.5-55.9-120.8-6.9-187 50.5-191.8 66.1v-193.2s86.2-98.4 311.6 0z" fill="#fff" stroke="#66b0f0" stroke-linejoin="round" stroke-miterlimit="10" stroke-width="6"/><path d="m2697 1768.7c-25.2-6.4-55.7-11.2-90.5-13.2-17.3-1-33.4-.5-48.2 1.1-36.7 4.1-65.6 15.1-86.2 26.9" style="fill:none;stroke:#66b0f0;stroke-width:6;stroke-linecap:round;stroke-linejoin:round;stroke-miterlimit:10"/><path d="m2688.1 1735.4c-24.1-5.7-52.8-10-85.2-11.9-17.3-1-33.4-.5-48.2 1.1-36.7 4.1-65.6 15.1-86.2 26.9" style="fill:none;stroke:#66b0f0;stroke-width:6;stroke-linecap:round;stroke-linejoin:round;stroke-miterlimit:10"/><path d="m2679.9 1702.2c-23-5.1-49.7-8.9-79.7-10.7-17.3-1-33.4-.5-48.2 1.1-36.7 4.1-65.6 15.1-86.2 26.9" style="fill:none;stroke:#66b0f0;stroke-width:6;stroke-linecap:round;stroke-linejoin:round;stroke-miterlimit:10"/><path d="m2712.9 1657.7 63.6 173.2" fill="none" stroke="#66b0f0" stroke-miterlimit="10" stroke-width="6"/><path d="m2805.3 1861.8h-383.9v-2.1c4.8-15.6 71-73 191.8-66.1 101.6 5.8 169.8 31.4 187.5 55.9z" fill="#66b0f0"/><path d="m2658.5 1033.1s-71.6 37.3-171 22.3c-24.7-3.7-51.2-10.7-78.6-22.3v-120.4l128.8-80.2 19.3 32.1z" fill="#e57281"/><path d="m2544.8 842c7.7 14.3 9 31.3 3.4 46.6l-60.7 166.8c-24.7-3.7-51.2-10.7-78.6-22.3v-120.4l129.4-82.7z" fill="#9a3b82"/><path d="m2533.7 788.1s15.1-134.3-38.6-146.6c-41-9.4-61.4 21.5-61.4 21.5s-22.2-32.4-56.6-17.2c-32.7 14.4-30.4 59.3-15.7 55.7s-14.2-32.4-45.1-11.1c-34.2 23.5 0 62.3 0 62.3s-25.3-12.2-37 12.7c-14.5 30.9 68.3 97.5 68.3 97.5z" fill="#9a3b82"/><path d="m2451.9 723.2-85.9 34.5c-20.7 8.3-30.8 32-22.5 52.6l37.5 93.5c13.8 34.5 53.4 51.3 87.8 37.5l35.7-14.3c34.5-13.8 51.3-53.4 37.5-87.8l-37.5-93.5c-8.3-20.7-32-30.8-52.6-22.5z" fill="#e57281"/><path d="m2559.3 832.2-17.3 7-18.8-46.8 17.3-7c10.3-4.1 21.9.9 26 11.1l3.9 9.7c4.2 10.2-.8 21.8-11.1 26z" fill="#e57281"/><path d="m2362.4 907.4 17.3-7-17.5-43.5-17.3 7c-10.3 4.1-15.2 15.8-11.1 26l2.6 6.4c4.1 10.2 15.7 15.2 26 11.1z" fill="#9a3b82"/><path d="m2538.2 817.2c-3.2-8.1.7-17.2 8.8-20.5" fill="none" stroke="#9a3b82" stroke-linecap="round" stroke-miterlimit="10" stroke-width="5"/><path d="m2454.1 773.9s20.3 7.6 46.1-4.6" fill="none" stroke="#9a3b82" stroke-linecap="round" stroke-miterlimit="10" stroke-width="5"/><path d="m2411.2 808.1s30.3-3.1 41.3 47.9" fill="none" stroke="#9a3b82" stroke-linecap="round" stroke-miterlimit="10" stroke-width="5"/><path d="m2497.2 872.6s-44.7-12-43.1 11.1" fill="none" stroke="#9a3b82" stroke-linecap="round" stroke-miterlimit="10" stroke-width="5"/><ellipse cx="2487.6" cy="815.8" fill="#9a3b82" rx="4.1" ry="10.1" transform="matrix(.9426 -.3339 .3339 .9426 -129.6316 877.4178)"/><ellipse cx="2405.1" cy="850.2" fill="#9a3b82" rx="4.1" ry="10.1" transform="matrix(.9426 -.3339 .3339 .9426 -145.8348 851.8586)"/><circle cx="2490" cy="815.6" fill="none" r="28.9" stroke="#ffcf2d" stroke-linecap="round" stroke-miterlimit="10" stroke-width="5"/><circle cx="2405" cy="848.6" fill="none" r="28.9" stroke="#ffcf2d" stroke-linecap="round" stroke-miterlimit="10" stroke-width="5"/><path d="m2432 838.2 30.5-14" fill="none" stroke="#ffcf2d" stroke-linecap="round" stroke-miterlimit="10" stroke-width="5"/><path d="m2227.6 974.4c-1.7 3.9-11.3 4.9-25.8 2.9-22.2-3-56-12.7-92-28.7-20.6-9.2-39.3-18.6-54.7-27.4-29.3-16.7-47-31.3-44.1-37.8 2.9-6.4 25.4-3.3 57.2 7 17.1 5.5 36.8 13.1 57.6 22.4 35.6 15.8 66.5 31.2 84.7 43.1 12.4 8 18.9 14.5 17.1 18.5z" fill="#fff" stroke="#fe5244" stroke-miterlimit="10" stroke-width="6"/><path d="m2397.3 771.6-27.2 105.1-24.5-61c-9.4-23.4 1.9-50.2 25-60z" fill="#9a3b82"/><path d="m2398.3 769.7-54 93.6c-6.2 10.8-17.8 17.5-30.3 17.5h-55.8c-8.2 0-15.5 5-18.6 12.5l-29 62.7-8.5 18.3c-24.5-3.3-58.6-13.9-91.2-28.4-12.2-5.4-24.1-11.1-35.1-16.8l14.7-30.7 26.3-54.9c12.6-29.7 34.3-54.7 62-71.3l54.4-32.7c7.2-4.3 15.5-6.6 23.9-6.6h92.4c5.1 0 10.1 1.1 14.6 3.3l27.8 13.2c7.7 3.7 10.6 13 6.4 20.3z" fill="#e57281"/><path d="m2267.7 772.7h66c4.9 0 9.7 1.1 14.1 3.2l26.7 12.8c7.3 3.5 10.1 12.5 6.1 19.5" fill="none" stroke="#9a3b82" stroke-linecap="round" stroke-miterlimit="10" stroke-width="5"/><path d="m2251.3 801.1h66c4.9 0 9.7 1.1 14.1 3.2l26.7 12.8c7.3 3.5 10.1 12.5 6.1 19.5" fill="none" stroke="#9a3b82" stroke-linecap="round" stroke-miterlimit="10" stroke-width="5"/><path d="m2232 838.2h66c4.9 0 9.7 1.1 14.1 3.2l26.7 12.8c7.3 3.5 10.1 12.5 6.1 19.5" fill="none" stroke="#9a3b82" stroke-linecap="round" stroke-miterlimit="10" stroke-width="5"/><path d="m2202.2 974.3c-24.5-3.3-58.6-13.9-91.2-28.4-12.2-5.4-24.1-11.1-35.1-16.8l16.6-33.9c11.1 4.2 22 9 34.2 14.5 35.6 15.8 66.7 32.3 84.9 44.2z" fill="#9a3b82"/><path d="m2212.5 878.1h46.8" fill="none" stroke="#9a3b82" stroke-linecap="round" stroke-miterlimit="10" stroke-width="5"/><ellipse cx="2706.1" cy="1566" fill="#fff" rx="23.9" ry="99.7"/><path d="m2730 1566c0 17.1-1 33.2-2.9 47.3-6.2 15.8-18.9 28.3-34.9 34.2-6.5 2.4-13.6 3.8-21 3.8h-90.7c-11.4 0-20.7 9.3-20.7 20.7v2.8c0 16.7-17.8 27.5-32.6 19.7l-42.6-22.3c-7.6-4-12.4-11.9-12.4-20.5v-33.3c0-12.5 5.9-24.2 15.8-31.7l65-48.9c11-8.3 24.4-12.7 38.1-12.7h136.7c1.5 12.5 2.2 26.3 2.2 40.9z" fill="#e57281"/><path d="m2569.4 1557.3-59.7 44.9c-9.1 6.9-14.5 17.7-14.5 29.1v30.6c0 7.9 4.4 15.2 11.4 18.8" fill="none" stroke="#9a3b82" stroke-linecap="round" stroke-miterlimit="10" stroke-width="5"/><path d="m2599.8 1570.7-59.7 44.9c-9.1 6.9-14.5 17.7-14.5 29.1v30.6c0 7.9 4.4 15.2 11.4 18.8" fill="none" stroke="#9a3b82" stroke-linecap="round" stroke-miterlimit="10" stroke-width="5"/><path d="m2730 1566c0 17.1-1 33.2-2.9 47.3-6.2 15.8-18.9 28.3-34.9 34.2-6.1-18.1-10.1-47.8-10.1-81.5 0-14.6.8-28.4 2.1-40.9h43.7c1.4 12.5 2.1 26.3 2.1 40.9z" fill="#9a3b82"/><ellipse cx="2903.7" cy="1702.2" fill="#ffcf2d" rx="108.4" ry="9.1"/><path d="m2993.9 1709.1h-44.8c-41.6 0-75.2-33.7-75.2-75.2v-63.9h195.3v63.8c0 41.6-33.7 75.3-75.3 75.3z" fill="#fff" stroke="#ffcf2d" stroke-miterlimit="10" stroke-width="6"/><path d="m3096.5 1624.7h-27.4v-48.7h27.4c11.7 0 21.3 9.5 21.3 21.3v6.2c0 11.7-9.6 21.2-21.3 21.2z" fill="none" stroke="#ffcf2d" stroke-miterlimit="10" stroke-width="6"/><ellipse cx="2971.5" cy="1569.3" fill="#3fb1b5" rx="98.5" ry="19.7" stroke="#fff" stroke-miterlimit="10" stroke-width="5"/><path d="m2874 1585.3c0 10.9 43.7 19.7 97.5 19.7s97.5-8.8 97.5-19.7" fill="none" stroke="#ffcf2d" stroke-miterlimit="10" stroke-width="6"/><path d="m2874 1606.2c0 10.9 43.7 19.7 97.5 19.7s97.5-8.8 97.5-19.7" fill="none" stroke="#ffcf2d" stroke-miterlimit="10" stroke-width="6"/><path d="m2874 1627.1c0 10.9 43.7 19.7 97.5 19.7s97.5-8.8 97.5-19.7" fill="none" stroke="#ffcf2d" stroke-miterlimit="10" stroke-width="6"/><path d="m2875.5 1648c0 10.9 43 19.7 96 19.7s96-8.8 96-19.7" fill="none" stroke="#ffcf2d" stroke-miterlimit="10" stroke-width="6"/><path d="m2883 1668.9c0 10.9 39.6 19.7 88.5 19.7s88.5-8.8 88.5-19.7" fill="none" stroke="#ffcf2d" stroke-miterlimit="10" stroke-width="6"/><path d="m2967.6 1534.3c-9.6-6.6-39.5-69.5-2.5-95.2 28.4-19.8 33.9 31.5 20.8 27.2-22.8-7.5-36.7-107.9 22.8-101.7 26.2 2.7 23.3 40 0 41" fill="none" stroke="#fff" stroke-linecap="round" stroke-miterlimit="10" stroke-width="5"/><path d="m1804.6 1828.1h-491.5c-13.2 0-25-8-29.9-20.2l-134.5-332.4c-6.4-15.9 5.3-33.3 22.4-33.3h491.5c13.2 0 25 8 29.9 20.2l134.5 332.4c6.5 15.9-5.2 33.3-22.4 33.3z" fill="#fff" stroke="#ffcf2d" stroke-miterlimit="10" stroke-width="6"/><path d="m1781.8 1830.5h-468.9c-12.5 0-23.8-7.6-28.5-19.2l-128.3-317.1c-6.1-15.2 5-31.7 21.4-31.7h468.9c12.5 0 23.8 7.6 28.5 19.2l128.3 317.1c6.1 15.2-5.1 31.7-21.4 31.7z" fill="#ffcf2d"/><path d="m1493.9 1686.3c-13.8 0-26.8-5.4-36.6-15.2-8-8-12.4-18.6-12.4-29.8 0-11.3 4.4-21.9 12.4-29.8 6.5-6.5 15.2-10.1 24.4-10.1s17.9 3.6 24.4 10.1c11.1 11.1 11.1 29.1 0 40.2-9.2 9.2-24.1 9.2-33.3 0-1.6-1.6-1.6-4.1 0-5.7s4.1-1.6 5.7 0c6.1 6.1 15.9 6.1 22 0 8-8 8-20.9 0-28.9-5-5-11.7-7.8-18.8-7.8s-13.8 2.8-18.8 7.8c-6.5 6.5-10 15-10 24.2 0 9.1 3.6 17.7 10 24.2 8.3 8.3 19.2 12.8 30.9 12.8s22.7-4.5 30.9-12.8c1.6-1.6 4.1-1.6 5.7 0s1.6 4.1 0 5.7c-9.7 9.7-22.7 15.1-36.5 15.1z" fill="#fff"/><path d="m1980.5 1863.3h-666.8c-7.7 0-13.9-6.2-13.9-13.9v-6.7c0-7.7 6.2-13.9 13.9-13.9h666.8c7.7 0 13.9 6.2 13.9 13.9v6.7c-.1 7.7-6.3 13.9-13.9 13.9z" fill="#fff" stroke="#ffcf2d" stroke-miterlimit="10" stroke-width="6"/></svg>