<svg enable-background="new 0 0 5000 3500" viewBox="0 0 5000 3500" xmlns="http://www.w3.org/2000/svg"><path d="m1870.1 432.3h1306v1234.3h-1306z" fill="none" stroke="#66b0f0" stroke-miterlimit="10" stroke-width="6"/><path d="m1870.1 432.3h653v1234.3h-653z" fill="none" stroke="#66b0f0" stroke-miterlimit="10" stroke-width="6"/><path d="m2523.1 432.3h653v1234.3h-653z" fill="none" stroke="#66b0f0" stroke-miterlimit="10" stroke-width="6"/><path d="m2657.4 551.7h398.2v398.2h-398.2z" fill="none" stroke="#66b0f0" stroke-miterlimit="10" stroke-width="6"/><path d="m2917.5 743.2-46.3 35" fill="none" stroke="#66b0f0" stroke-linecap="round" stroke-miterlimit="10" stroke-width="6"/><path d="m2806.7 827-149.3 112.9v-83l398.1-295.2v77.2l-107.3 81.1" fill="none" stroke="#66b0f0" stroke-linecap="round" stroke-miterlimit="10" stroke-width="6"/><path d="m1870.1 432.3h653v95.5z" fill="#66b0f0"/><path d="m2686.2 1221.2c-4.5 0-8.7-2.4-11-6.4l-95.5-167c-4.8-8.4 1.3-19 11-19 4.5 0 8.7 2.4 11 6.4l95.5 167c4.8 8.5-1.3 19-11 19z" fill="none" stroke="#66b0f0" stroke-miterlimit="10" stroke-width="6"/><path d="m1989 551.7h398.2v398.2h-398.2z" fill="none" stroke="#66b0f0" stroke-miterlimit="10" stroke-width="6"/><path d="m1989 856.9 398.1-295.2" fill="none" stroke="#66b0f0" stroke-linecap="round" stroke-miterlimit="10" stroke-width="6"/><path d="m2358.3 1221.2c4.5 0 8.7-2.4 11-6.4l95.5-167c4.8-8.4-1.3-19-11-19-4.5 0-8.7 2.4-11 6.4l-95.5 167c-4.8 8.5 1.3 19 11 19z" fill="none" stroke="#66b0f0" stroke-miterlimit="10" stroke-width="6"/><path d="m4197.5 2868.1-3364.1 190v-270.3h3364.1z" fill="#d0f0e4"/><path d="m4044.2 2578.3-3036.2 190v-270.3h3036.2z" fill="#d0f0e4"/><path d="m3848.7 2289.5-2676.8 190v-270.3h2676.8z" fill="#d0f0e4"/><path d="m3694.6 2002.7-2340.1 190v-270.3h2340.1z" fill="#d0f0e4"/><path d="m833.4 2787.8h3364.1v260.3" fill="none" stroke="#66b0f0" stroke-miterlimit="10" stroke-width="6"/><path d="m1008 2497h3036.2v271.4" fill="none" stroke="#66b0f0" stroke-miterlimit="10" stroke-width="6"/><path d="m1171.9 2208.2h2676.8v271.3" fill="none" stroke="#66b0f0" stroke-miterlimit="10" stroke-width="6"/><path d="m1355.5 1921.4h2339.1v271.3" fill="none" stroke="#66b0f0" stroke-miterlimit="10" stroke-width="6"/><path d="m3484.6 1731.7-1920 166.5v-236.9h1920z" fill="#d0f0e4"/><path d="m1565.4 1660.4h1919.2v237.8" fill="none" stroke="#66b0f0" stroke-miterlimit="10" stroke-width="6"/><path d="m1354.7 2203.9v-624.2" fill="none" stroke="#66b0f0" stroke-miterlimit="10" stroke-width="6"/><path d="m1871.4 1156.2-1174.5 962.1c-41.1 41.1-64.2 96.8-64.2 154.9 0 121 98.1 224.1 219.1 224.1" fill="none" stroke="#66b0f0" stroke-miterlimit="10" stroke-width="6"/><path d="m1005 2768.4v-903.1" fill="none" stroke="#66b0f0" stroke-miterlimit="10" stroke-width="6"/><path d="m3694.6 2205.9v-626.2" fill="none" stroke="#66b0f0" stroke-miterlimit="10" stroke-width="6"/><path d="m3177.9 1156.2 1174.6 962.1c41.1 41.1 64.2 96.8 64.2 154.9 0 121-98.1 224.1-219.1 224.1" fill="none" stroke="#66b0f0" stroke-miterlimit="10" stroke-width="6"/><path d="m4044.4 2768.4v-903.1" fill="none" stroke="#66b0f0" stroke-miterlimit="10" stroke-width="6"/><path d="m3884.9 3063.6s130.9-234.9 51.4-236.2c-37.1-.6-75.1 126.5-60.7 236.2z" fill="#3fb1b5"/><path d="m3879.2 3062.3s48.6-219.9 166-184.4-83 184.4-83 184.4" fill="none" stroke="#ffcf2d" stroke-linecap="round" stroke-miterlimit="10" stroke-width="6"/><path d="m3722.1 3066.1c-40.7-3.8-63.7-76.6-15.5-100.9 69.3-34.9 91 38 77.3 40.4-13.7 2.5-33-89.7 26.8-87.2s62 143.9 62 143.9" fill="none" stroke="#ffcf2d" stroke-linecap="round" stroke-miterlimit="10" stroke-width="6"/><path d="m3928.4 3062.3s62.5-151.8 123.4-182.1" fill="none" stroke="#ffcf2d" stroke-linecap="round" stroke-miterlimit="10" stroke-width="6"/><path d="m3861.8 2983.5s-14.7-81.5-15.3-135.1" fill="none" stroke="#ffcf2d" stroke-miterlimit="10" stroke-width="6"/><path d="m3879.6 2884.7c-2.9 7.2-25.3 25.1-25.3 25.1s-3.6-28.5-.7-35.7 11.1-10.6 18.2-7.7c7.2 2.9 10.7 11.1 7.8 18.3z" fill="none" stroke="#ffcf2d" stroke-miterlimit="10" stroke-width="6"/><path d="m3872.1 2827.4c-2.9 7.2-25.3 25.1-25.3 25.1s-3.6-28.5-.7-35.7 11.1-10.6 18.2-7.7c7.2 3 10.7 11.1 7.8 18.3z" fill="none" stroke="#ffcf2d" stroke-miterlimit="10" stroke-width="6"/><path d="m3820.5 2891c4.2 6.5 29.6 19.8 29.6 19.8s-1.9-28.6-6.1-35.1-12.9-8.3-19.4-4.1c-6.5 4.3-8.3 12.9-4.1 19.4z" fill="none" stroke="#ffcf2d" stroke-miterlimit="10" stroke-width="6"/><path d="m974.5 3067.7s-80.4-72.6-78.8-124.7c1.8-59.6 58.8-30.8 61.8-52.3 3.1-21.4-60.2-167.8 27.9-166.7s47.1 141.5 71 154.5c23.9 12.9 63.5-2.5 52.8 54.3-10.7 56.9-99.7 134.2-99.7 134.2z" fill="#3fb1b5"/><path d="m733.1 3065.9c-52.1 0-92.2-95.2-11.9-120.4s89.1 50.7 71.6 53.6-26.2-145.8 118.3-125.6c157.7 22 61.3 192.4 61.3 192.4s93-156.4 7.5-339.6" fill="none" stroke="#ffcf2d" stroke-linecap="round" stroke-miterlimit="10" stroke-width="6"/><path d="m1081.6 3065.9s81.6-170.8 159.9-116.4-105.5 116.4-105.5 116.4" fill="none" stroke="#ffcf2d" stroke-linecap="round" stroke-miterlimit="10" stroke-width="6"/><path d="m1111 3064.4s79.3-106 131.6-113.8" fill="none" stroke="#ffcf2d" stroke-linecap="round" stroke-miterlimit="10" stroke-width="6"/><path d="m1010.9 3064.9s42.9-99.9 80.9-159.1" fill="none" stroke="#ffcf2d" stroke-linecap="round" stroke-miterlimit="10" stroke-width="6"/><path d="m1101.9 2969.4c-8.4 5.8-45.9 9.3-45.9 9.3s16.7-33.8 25-39.6c8.4-5.8 19.8-3.7 25.6 4.7s3.7 19.9-4.7 25.6z" fill="none" stroke="#ffcf2d" stroke-miterlimit="10" stroke-width="6"/><path d="m1135.1 2901.2c-8.4 5.8-45.9 9.3-45.9 9.3s16.7-33.8 25-39.6c8.4-5.8 19.8-3.7 25.6 4.7s3.7 19.9-4.7 25.6z" fill="none" stroke="#ffcf2d" stroke-miterlimit="10" stroke-width="6"/><path d="m1149 2843.3c-5.4 8.6-38.5 26.6-38.5 26.6s1.9-37.6 7.4-46.2c5.4-8.6 16.8-11.2 25.4-5.8s11.1 16.8 5.7 25.4z" fill="none" stroke="#ffcf2d" stroke-miterlimit="10" stroke-width="6"/><path d="m1032.5 2933.6c-.1 10.2 18.1 43.2 18.1 43.2s18.6-32.8 18.7-42.9c.1-10.2-8.1-18.5-18.3-18.5-10.1-.1-18.4 8-18.5 18.2z" fill="none" stroke="#ffcf2d" stroke-miterlimit="10" stroke-width="6"/><path d="m1069.7 2866.2c-.1 10.2 18.1 43.2 18.1 43.2s18.6-32.8 18.7-42.9c.1-10.2-8.1-18.5-18.3-18.5s-18.4 8.1-18.5 18.2z" fill="none" stroke="#ffcf2d" stroke-miterlimit="10" stroke-width="6"/><path d="m3469.3 3066.1h842.8" fill="none" stroke="#66b0f0" stroke-miterlimit="10" stroke-width="6"/><path d="m603.4 3066.1h2033.4" fill="none" stroke="#66b0f0" stroke-miterlimit="10" stroke-width="6"/><path d="m2451.8 1146.2c0 6.2-.7 12.3-2 18.3-.3 1.2-.6 2.4-.9 3.6-3.2 12-9 23.4-17.3 33.1-.1.1-.2.3-.3.4-.9 1.1-1.9 2.1-2.9 3.2-.2.3-.5.5-.7.7-3.3 3.4-7 6.6-11 9.5-7 5.1-14.4 8.9-22.1 11.6-1.2.4-2.4.8-3.6 1.2-10.8 3.2-22.1 4.2-33.1 3-1.2-.1-2.4-.3-3.6-.5-11.7-1.8-23-5.9-33.1-12.4-1.2-.8-2.4-1.6-3.6-2.4-4.4-3.1-8.5-6.7-12.3-10.7-1.1-1.2-2.2-2.3-3.2-3.6-2.1-2.5-4.2-5.2-6-8l-6.3-9.5 5.6 17.5 1.1 3.6 10.5 33.1 1.1 3.6 9.5 30 1 3.1 1.1 3.6 1.5 4.6 9 28.5 1.1 3.6 10.5 33.1 1.1 3.6 10.5 33.1.8 2.6.3 1 3.3 10.3.6 1.9c-.1-.4-.3-.8-.6-1.2-.7-1-1.9-1.9-3.6-2.7-5.7-2.8-17.1-4.9-33.1-6.1-1.2-.1-2.4-.2-3.6-.3-9.6-.6-20.6-1-33.1-1.2-1.2 0-2.4 0-3.6 0-10.2-.1-21.2 0-33.1.3-1.2 0-2.4.1-3.6.1-10.5.3-21.5.7-33.1 1.2-1.2.1-2.4.1-3.6.2-10.6.5-21.6 1.1-33.1 1.8-1.2.1-2.4.1-3.6.2-10.7.7-21.7 1.4-33.1 2.3-1.2.1-2.4.2-3.6.3-10.8.8-21.8 1.7-33.1 2.7-1.1.1-2.2.2-3.3.3-.1 0-.2 0-.3 0-11.2 1-22.3 2-33.1 3.1-1.2.1-2.4.2-3.6.4-11.3 1.1-22.4 2.3-33.1 3.6-1.2.1-2.4.3-3.6.4-11.4 1.3-22.5 2.7-33.1 4.2-1.2.2-2.4.3-3.6.5-11.6 1.6-22.6 3.2-33.1 4.8-1.2.2-2.4.4-3.6.6-11.4 1.8-22 3.7-31.9 5.5-.4.1-.8.2-1.2.2-1.2.2-2.4.5-3.6.7-4.5.9-8.8 1.8-12.9 2.7-7.4 1.6-14.1 3.2-20.2 4.8-1.2.3-2.4.6-3.6 1-21 5.7-32.9 11.3-32.9 16.3v-143.6h-110.3c-1.2 0-2.4 0-3.6-.1-11.6-.4-22.7-2.6-33.1-6.2-1.2-.4-2.4-.9-3.6-1.3-10.9-4.3-21-10.2-30-17.5-1-.8-2.1-1.7-3.1-2.6-.4-.3-.7-.6-1.1-1-.8-.7-1.7-1.5-2.5-2.3-.7-.6-1.3-1.3-2-2-8.4-8.4-15.5-18.1-20.9-28.9-.6-1.2-1.2-2.4-1.7-3.6-4.8-10.3-8-21.4-9.4-33.1-.2-1.2-.3-2.4-.4-3.6-.3-3.4-.5-6.8-.5-10.3 0-7.7.8-15.4 2.3-22.8.2-1.2.5-2.4.8-3.6 2.8-11.7 7.5-22.8 13.9-33.1.6-.9 1.2-1.9 1.8-2.8l.5-.8 15.5-23.3 3.6-5.4 3-4.4 2.4-3.6 22.1-33.1 2.4-3.6 3.3-4.9 3.6-5.4 15.2-22.8 2.4-3.6 15.5-23.3 3.6-5.4 2.9-4.4 2.4-3.6 22.1-33.1 2.4-3.6.6-.9c.9-1.3 1.8-2.5 2.7-3.8 1.2-1.6 2.4-3.1 3.6-4.7 7-8.8 14.8-16.7 23.4-23.7 1.5-1.2 3-2.4 4.5-3.6 1.7-1.3 3.5-2.6 5.2-3.8 1.2-.8 2.4-1.6 3.6-2.4 10.3-6.9 21.5-12.5 33.1-16.8 1.2-.4 2.4-.9 3.6-1.3 10.7-3.7 21.8-6.2 33.1-7.5 1.2-.1 2.4-.3 3.6-.4 5-.5 10.1-.7 15.2-.7h280.3l.3-.1 9.2-3.6 21.6-8.4 3.6-1.4 33.1-12.9 3.6-1.4 23.3-9 9.2-3.6.6-.3 3.6-1.4 6.2-2.4 2.2 4.1 2 3.6 18.1 33.1 2 3.6 2.6 4.8 3.6 6.6 11.9 21.7 2 3.6 18.1 33.1 1.1 2.1.8 1.5 2.8 5 15.3 28.1 2 3.6 15.8 28.9 2.3 4.2 1.3 2.3.7 1.3 18.1 33.1 2 3.6 12.3 22.5 3.6 6.6 2.2 4 2 3.6 5.9 10.8c3.9 7.2 6.7 14.7 8.4 22.3.3 1.2.5 2.4.7 3.6 1.1 4.6 1.5 9.6 1.5 14.5z" fill="#fe5244"/><g fill="#fff" opacity=".2"><path d="m1660.9 1099.2v176.4c-.4-.3-.7-.6-1.1-1-.8-.7-1.7-1.5-2.5-2.3v-167.7z"/><path d="m1734.3 989.1v314.2c-1.2 0-2.4 0-3.6-.1v-308.7z"/><path d="m1697.6 1044.1v252.8c-1.2-.4-2.4-.9-3.6-1.3v-246.1z"/><path d="m1807.7 901.4v401.8h-3.6v-399.3c1.2-.8 2.4-1.7 3.6-2.5z"/><path d="m1771 935v368.2h-3.6v-363.5c1.2-1.6 2.4-3.1 3.6-4.7z"/><path d="m1881.1 875.5v554.2c-1.2.3-2.4.6-3.6 1v-554.9c1.2-.1 2.4-.2 3.6-.3z"/><path d="m1844.4 883.4v419.9h-3.6v-418.7c1.2-.4 2.4-.8 3.6-1.2z"/><path d="m1917.7 874.6v546.9c-1.2.2-2.4.5-3.6.7v-547.6z"/><path d="m1991.1 874.6v535.3c-1.2.2-2.4.3-3.6.5v-535.8z"/><path d="m1954.4 874.6v540.6c-1.2.2-2.4.4-3.6.6v-541.2z"/><path d="m2064.5 874.6v526.8c-1.2.1-2.4.2-3.6.4v-527.2z"/><path d="m2027.8 874.6v530.7c-1.2.1-2.4.3-3.6.4v-531.1z"/><path d="m2137.9 874.6v520.4c-1.2.1-2.4.2-3.6.3v-520.7z"/><path d="m2101.2 874.6v523.4c-1.1.1-2.2.2-3.3.3-.1 0-.2 0-.3 0v-523.7z"/><path d="m2174.5 874.6v518c-1.2.1-2.4.1-3.6.2v-518.2z"/><path d="m2247.9 847v542.4c-1.2 0-2.4.1-3.6.1v-541.1z"/><path d="m2211.2 861.2v529.4c-1.2.1-2.4.1-3.6.2v-528.2z"/><path d="m2321.3 886v331.9c-1.2-.8-2.4-1.6-3.6-2.4v-336z"/><path d="m2321.3 1282.8v107.7c-1.2-.1-2.4-.2-3.6-.3v-118.8l1 3.1 1.1 3.6z"/><path d="m2284.6 832.2v.5l-3.6 1.4v-1.9z"/><path d="m2284.6 832.7v556.4c-1.2 0-2.4 0-3.6 0v-555z"/><path d="m2394.7 1020.1v206.5c-1.2.4-2.4.8-3.6 1.2v-214.2l2.3 4.2z"/><path d="m2358 1398.6v.8c-.7-1-1.9-1.9-3.6-2.7v-9.4l.3 1z"/><path d="m2358 953v277.7c-1.2-.1-2.4-.3-3.6-.5v-283.7l.8 1.5z"/><path d="m2431.3 1087.1v114.5c-.9 1.1-1.9 2.1-2.9 3.2-.2.3-.5.5-.7.7v-124.9z"/><path d="m1919 1421.3c-.4.1-.8.2-1.2.2-1.2.2-2.4.5-3.6.7-4.5.9-8.8 1.8-12.9 2.7h-56.9v-3.6z"/><path d="m2343.1 1351.5h-498.7v-3.6h497.5z"/><path d="m2354.7 1388.2h-510.3v-3.6h509.2l.8 2.6z"/><path d="m2331.4 1314.8h-487v-3.5h485.9z"/><path d="m2308.2 1241.5h-673.7c-.6-1.2-1.2-2.4-1.7-3.6h674.3z"/><path d="m2319.8 1278.2h-655.8c-1-.8-2.1-1.7-3.1-2.6-.4-.3-.7-.6-1.1-1h658.8z"/><path d="m2449.9 1164.5c-.3 1.2-.6 2.4-.9 3.6h-824.2c.2-1.2.5-2.4.8-3.6z"/><path d="m2296.6 1204.8h-673.3c-.2-1.2-.3-2.4-.4-3.6h672.5z"/><path d="m2431.7 1201.2c-.1.1-.2.3-.3.4-.9 1.1-1.9 2.1-2.9 3.2h-123.1c-1.1-1.2-2.2-2.3-3.2-3.6z"/><path d="m2435.5 1094.7h-771.6l2.4-3.6h767.2z"/><path d="m2450.5 1131.4h-811c.6-.9 1.2-1.9 1.8-2.8l.5-.8h808c.3 1.2.5 2.4.7 3.6z"/><path d="m2415.4 1058h-727l2.3-3.5h722.8z"/><path d="m2375.3 984.7h-638.1l2.4-3.6h633.7z"/><path d="m2395.4 1021.4h-682.6l2.4-3.6h678.2l1.3 2.3z"/><path d="m2335.1 911.3h-540.8c1.5-1.2 3-2.4 4.5-3.6h534.3z"/><path d="m2355.2 948h-593.5l2.4-3.6h589.1l1.2 2.1z"/><path d="m2295 837.9h-23.8l9.2-3.6h12.6z"/><path d="m2315.1 874.6h-138.2l9.2-3.6h127z"/></g><path d="m2106.7 1471c-169.2 13.1-262-2.9-262.1-24.1 0-15.2 111.7-36.3 253.3-48.6 149.5-12.9 256.1-12.3 260.7 2.2 6.4 20.2-76.7 56.9-251.9 70.5z" fill="#e57281"/><g stroke-miterlimit="10"><path d="m2098.8 1276.4 57.6 117.3" fill="none" stroke="#fff" stroke-width="6"/><circle cx="2079.7" cy="1313.3" fill="none" r="8.9" stroke="#fff" stroke-width="5"/><path d="m2176.6 874.7 125.6 335.7" fill="none" stroke="#fff" stroke-width="5"/><path d="m1622.9 1173.6c25.4-14.7 62 1.1 81.7 35.3 19.7 34.1 15.1 73.7-10.3 88.4" fill="none" stroke="#fff" stroke-linecap="round" stroke-width="5"/><path d="m2448.7 1169.1c-5 17.9-15.9 34.3-31.9 45.9-23.8 17.3-53.5 20.3-79 11-5.7-22.4 10.9-49.2 39.9-62.7 26.8-12.4 55.8-9.4 71 5.8z" fill="none" stroke="#fff" stroke-width="5"/><path d="m2098.8 1396-1.2-521.4" fill="none" stroke="#fff" stroke-width="6"/><circle cx="2128.1" cy="983.4" fill="none" r="8.9" stroke="#fff" stroke-width="5"/><circle cx="2128.1" cy="1093.2" fill="none" r="8.9" stroke="#fff" stroke-width="5"/><circle cx="2128.1" cy="1203" fill="none" r="8.9" stroke="#fff" stroke-width="5"/><path d="m1968.5 872.9 129.9 74.5 69.2-75.4" fill="none" stroke="#fff" stroke-width="5"/><path d="m2401.1 2209.8-231.2.1 15.5-49.5h214.7z" fill="#fff" stroke="#fe5244" stroke-width="5"/><path d="m2455.1 1637.4c35.8 59.2 46.1 130.4 28.7 197.3l-74.8 287.3-10 38.4h-213.5l15.8-50.3 88.9-288.1-254.5-417.6c19.8-2.2 40.6-4.3 62.1-6.1 88.2-7.6 161.4-10.5 207.6-8.7z" fill="#fff" stroke="#9a3b82" stroke-linecap="round" stroke-width="6"/><path d="m2711.9 2209.8-310.8.1-1-49.8.2.3 171-79.3c96.5 29.9 138.2 73.4 155.8 101.4 7.4 11.9-1.2 27.3-15.2 27.3z" fill="#fff" stroke="#fe5244" stroke-width="5"/><path d="m2571.3 2081.1-171 79.3-454.6-622.2c-15-20.5-26.7-42.9-34.9-66.6-5.2-15-9-30.5-11.3-46.3 46.1-10.1 117.4-20 198.4-27 20.4-1.8 39.9-3.3 58.5-4.5l40.6 67.2z" fill="#fff" stroke="#9a3b82" stroke-linecap="round" stroke-width="6"/><path d="m2070.6 1458.2 401.4 665.1" fill="none" stroke="#9a3b82" stroke-linecap="round" stroke-width="6"/><path d="m2042.2 1432.4s-3 73.4-66.4 99.3" fill="none" stroke="#9a3b82" stroke-linecap="round" stroke-width="6"/></g><path d="m2305.5 1389.6 23 38.2c-26.5 11.8-70.2 24-131.6 33.1-26.7 4-56.8 7.4-90.3 10-16.9 1.3-33 2.3-48.3 3.1-62.4 3.1-112 1.7-147.6-2.4-5.2-15-9-30.5-11.3-46.3 0 0 99.9-19 203.1-27.4s203-8.3 203-8.3z" fill="#9a3b82"/><path d="m1841.9 1447.8c0-15.2 107.3-37.4 256-50.4 149.5-13.1 258.8-11.4 263.4 3.1" fill="none" stroke="#fff" stroke-linecap="round" stroke-miterlimit="10" stroke-width="5"/><path d="m2108.2 874.7h-134.3l18.5-97.5h115.8z" fill="#ffcf2d"/><path d="m2007.3 874.7h-33.4l18.5-97.5h115.8v34.4z" fill="#e57281"/><path d="m1991.9 791.8s18.4-104.6 20.8-110.5c4.1-10 88.8-42.2 101.8-30.3s-13.3 22.5.8 21.4 56.6-32.7 74.4-8.6c10.8 14.7-24 35.9-46.3 40.2s-85 37.9-86.5 49.8-21.6 35.7-65 38z" fill="#fff" stroke="#ffcf2d" stroke-miterlimit="10" stroke-width="5"/><path d="m2143.4 702.2v88.6c0 13.8-11.2 24.9-24.9 24.9h-31.7c-16.5 0-29.8-13.4-29.8-29.9v-8.7h-15.4c-5 0-9.5-2-12.8-5.3s-5.3-7.8-5.3-12.8c0-10 8.1-18.1 18.1-18.1h17.4c4.6-14.4 16.7-25.6 32.2-28.6z" fill="#ffcf2d"/><path d="m2053.4 762.9c0-8.2-4.9-14.3-13-13" fill="none" stroke="#e57281" stroke-linecap="round" stroke-miterlimit="10" stroke-width="4"/><path d="m2110.8 734.3s10.4-5.9 22.1-7" fill="none" stroke="#e57281" stroke-linecap="round" stroke-miterlimit="10" stroke-width="4"/><ellipse cx="2125.2" cy="747.1" fill="#e57281" rx="4" ry="6.5"/><path d="m2048 1193.3-23.6 9-2.1.8-16.2 6.1v-44.6h-195.9l43.6-74.1 1.8-3.1 21.5-8.1 4.2-1.6 16.5-6.3 3.2-1.2 25.4-9.7 4.2-1.6 16.2-6.1 4-1.5 17.4-6.6c.4-.2.8-.3 1.2-.4 1.3-.4 2.6-.7 3.9-.8 1.6-.2 3.2-.2 4.7-.1 4.8.4 9.3 2.5 12.8 5.8 2.4 2.2 4.3 5 5.5 8.2z" fill="#fff"/><path d="m2017.7 1107.1-19.1-50.5c-1.3-3.4-3.3-6.4-5.7-8.7-4-3.9-9.4-6.3-15-6.7-1.8-.1-3.6-.1-5.3.2-1.7.2-3.4.7-5 1.3l-17.4 6.6-4.2 1.6-16 6.1-4.2 1.6-25 9.5-4.2 1.6-16.1 6.1-4.2 1.6-18.9 7.2-1.8 3.1-1.8 3.1 24.3-9.2 4.2-1.6 45.1-17.1 4.2-1.6 36.1-13.7 1.3-.5c.6-.2 1.2-.4 1.8-.6 1.2-.3 2.3-.5 3.5-.6.6 0 1.1-.1 1.7-.1 7.9 0 15.4 4.8 18.4 12.7l50.7 133.8-19.5 7.4-2.1.8-2.1.8-15.4 5.8v4.8l17-6.4 27.8-10.6z" fill="#3fb1b5"/><path d="m2048 1193.3-23.7 9-54.8-144.5c-2.5-6.5.8-13.8 7.3-16.3 6.5-2.5 13.8.8 16.3 7.3z" fill="#3fb1b5"/><path d="m2023 1205.1-55.6-146.6c-2.9-7.7 1-16.3 8.6-19.2 3.7-1.4 7.8-1.3 11.4.3s6.4 4.6 7.8 8.3l55.6 146.6zm-41.6-162.2c-1.2 0-2.5.2-3.7.7-5.4 2-8.1 8.1-6 13.4l54 142.4 19.5-7.4-54-142.4c-1-2.6-2.9-4.7-5.5-5.8-1.4-.6-2.9-.9-4.3-.9z" fill="#3fb1b5"/><path d="m1941.4 1073c-2.4 0-5-.9-7.4-2.6-3.4-2.4-6.1-6.1-7.8-10.5s-2.1-9.1-1.1-13.1c1-4.3 3.5-7.4 6.9-8.7 6.9-2.6 15.1 2.9 18.7 12.5.4 1.2-.1 2.5-1.3 2.9s-2.5-.1-2.9-1.3c-2.7-7-8.6-11.5-13-9.9-2 .8-3.5 2.7-4.1 5.5-.7 3.1-.4 6.8 1 10.4s3.6 6.6 6.2 8.5c2.4 1.7 4.8 2.2 6.8 1.4 1.2-.4 2.5.1 2.9 1.3s-.1 2.5-1.3 2.9c-1.2.5-2.4.7-3.6.7z" fill="#3fb1b5"/><path d="m1891.7 1091.1c-2.4 0-5-.9-7.4-2.6-3.4-2.4-6.1-6.1-7.8-10.5s-2.1-9.1-1.1-13.1c1-4.3 3.5-7.4 6.9-8.7s7.3-.6 10.9 1.9c3.4 2.4 6.1 6.1 7.8 10.5.4 1.2-.1 2.5-1.3 2.9s-2.5-.1-2.9-1.3c-1.4-3.6-3.6-6.6-6.2-8.5-2.4-1.7-4.8-2.2-6.8-1.4s-3.5 2.7-4.1 5.5c-.7 3.1-.4 6.8 1 10.4s3.6 6.6 6.2 8.5c2.4 1.7 4.8 2.2 6.8 1.4 1.2-.4 2.5.1 2.9 1.3s-.1 2.5-1.3 2.9c-1.2.6-2.4.8-3.6.8z" fill="#3fb1b5"/><ellipse cx="2006.3" cy="1233.9" fill="#73325a" rx="25.4" ry="69.3"/><path d="m2097.5 1178.8v75c0 6-3.1 11.6-8.2 14.8l-32 19h-67.2c-5.7-12.7-9.3-32-9.3-53.5 0-15.5 1.9-29.9 5-41.4h64.4l-9.9-26.2c-2.9-7.5 4.1-15.1 11.8-13l32.6 8.6c7.6 2 12.8 8.8 12.8 16.7z" fill="#ffcf2d"/><path d="m2095.7 1230.4c0 6-3.1 11.6-8.2 14.8l-30.2 19" fill="none" stroke="#73325a" stroke-linecap="round" stroke-miterlimit="10" stroke-width="4"/><path d="m2095.7 1202.7c0 6-3.1 11.6-8.2 14.8l-30.2 19" fill="none" stroke="#73325a" stroke-linecap="round" stroke-miterlimit="10" stroke-width="4"/><path d="m2095.7 1176.7c0 6-3.1 11.6-8.2 14.8l-30.2 19" fill="none" stroke="#73325a" stroke-linecap="round" stroke-miterlimit="10" stroke-width="4"/><path d="m2065.2 1183.1-15.1 9.4" fill="none" stroke="#73325a" stroke-linecap="round" stroke-miterlimit="10" stroke-width="4"/><path d="m2031.7 1233.9c0 21.6-3.6 40.9-9.3 53.6h-32.3c-5.7-12.7-9.3-32-9.3-53.6 0-15.5 1.9-29.9 5-41.4h40.8c3.2 11.5 5.1 25.9 5.1 41.4z" fill="#e57281"/><path d="m1885.6 1041.8-71.9 121.1" fill="none" stroke="#fff" stroke-miterlimit="10" stroke-width="5"/><path d="m2005.4 1162.9c-14 0-25.4 34.1-25.4 72.9s11.4 70.2 25.4 70.2h-161" fill="none" stroke="#fff" stroke-linecap="round" stroke-miterlimit="10" stroke-width="5"/><path d="m2179.9 744.9 94.8 117.7-53.8 54.6-119.1-93c-3.5-3.4-.7-12.4 6.5-23.6 5.2-8.2 12.7-17.5 21.8-26.7s18.3-16.9 26.4-22.2c11-7.2 19.9-10.1 23.4-6.8z" fill="#3fb1b5" stroke="#3fb1b5" stroke-linecap="round" stroke-miterlimit="10" stroke-width="5"/><ellipse cx="2247.7" cy="890" fill="#fff" rx="38.3" ry="14.3" stroke="#3fb1b5" stroke-miterlimit="10" stroke-width="6" transform="matrix(.7017 -.7124 .7124 .7017 36.3849 1866.8622)"/><path d="m2202.9 854.5v7.6c0 6.2-15.8 9.2-20.1 4.7l-37.4-39.2c-2.8-3-4.4-6.9-4.4-11v-22.6c0-5.8 2.7-11.2 7.3-14.7l13.3-10.1c3.2-2.5 7.2-3.8 11.2-3.8h36.1c10 0 19.2 5.5 23.8 14.3l31.8 59.9h-46.9c-8.1.1-14.7 6.7-14.7 14.9z" fill="#ffcf2d"/><path d="m2263.8 839.7h-45.1c-8.2 0-14.9 6.7-14.9 14.9v7.6c0 6.2-14 9.2-18.3 4.7l-41.5-43.2" fill="none" stroke="#73325a" stroke-linecap="round" stroke-miterlimit="10" stroke-width="4"/><path d="m2159.3 839.7c-2.8-2.9-4.3-6.7-4.3-10.7v-22c0-5.7 2.6-11 7.1-14.4l13-9.9c3.2-2.4 7-3.7 11-3.7h25.4" fill="none" stroke="#73325a" stroke-linecap="round" stroke-miterlimit="10" stroke-width="4"/><path d="m2173.7 854.9c-2.8-2.9-4.3-6.7-4.3-10.7v-22c0-5.7 2.6-11 7.1-14.4l13-9.9c3.2-2.4 7-3.7 11-3.7h22.7" fill="none" stroke="#73325a" stroke-linecap="round" stroke-miterlimit="10" stroke-width="4"/><path d="m2189.4 867.5c-2.6-2.7-4-6.2-4-9.9v-20.4c0-5.2 2.4-10.2 6.6-13.3l12-9.2c2.9-2.2 6.5-3.4 10.1-3.4h15.2" fill="none" stroke="#73325a" stroke-linecap="round" stroke-miterlimit="10" stroke-width="4"/><path d="m2963.2 1616.9h391.8c79.2 0 153.2 39 198 104.2l179.5 264.4c14.8 21.5 1.4 50.8-24.7 50.8h-199.8l-79.8-104.3c-9.4-13.2-30.2-7.4-31.5 8.8l-16.1 196.4h-427.3l-36-199.7c-2.2-15.6-22.4-20.4-31.5-7.5l-73.3 94.4h-238.9l186.4-295.4c44.1-69.8 120.8-112.1 203.2-112.1z" fill="#fff" stroke="#3fb1b5" stroke-linecap="round" stroke-miterlimit="10" stroke-width="6"/><path d="m3201.9 1718.9 63.5 210.9h-156.9l69.7-210.9z" fill="#fe5244"/><g fill="#fff" opacity=".2"><path d="m3151.3 1800.4v129.4h-4.2v-116.7l1.4-4.3z"/><path d="m3191.8 1719.4h4.2v210.4h-4.2z"/><path d="m3240.7 1847.7v82.1h-4.2v-96.1z"/><path d="m3257.2 1902.5h-139.7l1.4-4.3h137z"/><path d="m3243.7 1857.8h-111.4l1.4-4.3h108.7z"/><path d="m3230.3 1813.1h-83.2l1.4-4.3h80.5z"/><path d="m3216.8 1768.4h-54.9l1.4-4.3h52.2z"/><path d="m3203.3 1723.7h-26.6l1.4-4.3h24z"/></g><path d="m3230.3 1716.7 25.6 27.5 82.5-127.3h-73.1z" fill="#fff" stroke="#3fb1b5" stroke-linecap="round" stroke-miterlimit="10" stroke-width="6"/><path d="m3154.4 1716.7-25.7 27.5-89.4-127.3h80z" fill="#fff" stroke="#3fb1b5" stroke-linecap="round" stroke-miterlimit="10" stroke-width="6"/><path d="m3763.9 2060.5c0 49.8-35.5 97-90.7 105.1l-226.3 33.3-49.7 7.3v-192.4l15.3-3.6 220.8-52.4c42.6-10.1 87 7 111.8 43.1 12.9 18.6 18.8 39.3 18.8 59.6z" fill="#a0505a"/><path d="m3446.9 2198.9-49.7 7.3v-192.4l15.3-3.6z" fill="#73325a"/><path d="m3397.2 2255.4h-475.7v-285.5c0-22.2 18-40.1 40.1-40.1h395.4c22.2 0 40.1 18 40.1 40.1v285.5z" fill="#ffcf2d"/><path d="m3188.7 2115.4h-58.7c-6 0-10.8-4.8-10.8-10.8v-24.6c0-6 4.8-10.8 10.8-10.8h58.7c6 0 10.8 4.8 10.8 10.8v24.6c0 6-4.9 10.8-10.8 10.8z" fill="none" stroke="#fff" stroke-miterlimit="10" stroke-width="5"/><path d="m3088.6 2252.3 503.6-75.3c98-14.9 186.3 61 186.3 160.2 0 89.5-72.5 162-162 162h-524.6z" fill="#0096a0"/><path d="m3020.5 2543.3-303.1 58.5c-38.6 8.2-77.4-24-79.1-65.6l-4.5-110.6c-2.3-56 51.4-89.7 102-65.7z" fill="#fff" stroke="#fe5244" stroke-miterlimit="10" stroke-width="6"/><path d="m2737.9 2597.8c-37.3 7.8-75-23.5-76.8-64l-4.7-107.4c-2.4-54.4 49.4-86.8 98.4-63.4" fill="none" stroke="#fe5244" stroke-miterlimit="10" stroke-width="6"/><path d="m2735.8 2359.8 284.7 183.5-64.9 12.5z" fill="#fe5244"/><path d="m2845.5 2440.2-37.5 74.7-37.1-87.8-42.9 98.6" fill="none" stroke="#fe5244" stroke-linejoin="round" stroke-miterlimit="10" stroke-width="6"/><path d="m2725.9 2413.4 42 104.8 41.1-83.7 31.9 69.8" fill="none" stroke="#fe5244" stroke-linejoin="round" stroke-miterlimit="10" stroke-width="6"/><path d="m3255.9 2406.2c-16.8-13.8-65.4 17.6-108.6 70.1s-64.6 106.3-47.8 120.1c-2.5-1.5-318.2-199.5-514.1-334.6-49.8-34.3-76.1-89.3-76.1-145 0-38.8 12.8-77.9 39.3-110.6 66.4-81.9 189.4-87.4 262.9-11.8z" fill="#3fb1b5"/><ellipse cx="3177.7" cy="2501.3" fill="#fe5244" rx="123.1" ry="39.4" stroke="#fff" stroke-miterlimit="10" stroke-width="6" transform="matrix(.6352 -.7723 .7723 .6352 -772.6595 3366.5283)"/><path d="m3394.9 2579-56.2 95.4c-28.5 48.3-92.9 49.2-122.4 1.6l-94.6-152.4c8.1-13.4 18.1-27.4 29.6-41.4 20.8-25.3 42.9-45.7 62.1-58.5l150.6 57.3c36.8 14.1 52 62.1 30.9 98z" fill="#fff" stroke="#fe5244" stroke-miterlimit="10" stroke-width="6"/><path d="m3348.1 2474.8c34.8 13.5 47.1 58.6 27.2 93.1l-53 91.5c-26.8 46.4-87.5 47.2-115.4 1.6" fill="none" stroke="#fe5244" stroke-miterlimit="10" stroke-width="6"/><path d="m3163.3 2523.7 76.6-38.8-23 92.3 91.6-56.2" fill="none" stroke="#fe5244" stroke-linejoin="round" stroke-miterlimit="10" stroke-width="6"/><path d="m3246 2614.2 23.8-107.5-78.1 38.5 12-71.4" fill="none" stroke="#fe5244" stroke-linejoin="round" stroke-miterlimit="10" stroke-width="6"/><path d="m3305.7 1634.2c-.4 6.4-3.2 12.1-7.6 16.2s-10.2 6.6-16.6 6.6h-22.1l-1.4 23.3c-1.2 19.2-20.3 38.8-40.2 38.8h-55.9c-19.8 0-39-19.6-40.2-38.8l-1.4-23.3h-22.4c-6.4 0-12.3-2.5-16.6-6.6-4.4-4.1-7.2-9.8-7.6-16.3-.8-14 10.7-25.6 24.7-25.6h18.9l-2.1-35.5c-.4-7.5 5.5-13.8 13-13.8h123.4c7.5 0 13.4 6.3 13 13.8l-2.1 35.5h19.1c13.8.1 24.9 11.8 24.1 25.7z" fill="#a0505a"/><path d="m3262.4 1608.5h20.1s19.2-69.7.7-87.6-132.1-59.1-168.8-33.4c-26.8 18.8-12.2 121-12.2 121h14.8s59.7-42.8 69.1-39.1-27 21.7-19.7 25.2c27.3 13.1 76.4-34.4 87.7-34.4s8.3 48.3 8.3 48.3z" fill="#73325a"/><path d="m3237.1 1625.8s-13.1-10.6-29.9-3.7" fill="none" stroke="#73325a" stroke-linecap="round" stroke-miterlimit="10" stroke-width="4"/><path d="m3210.3 1682.8s-7.2 15.4-29 7.4" fill="none" stroke="#73325a" stroke-linecap="round" stroke-miterlimit="10" stroke-width="4"/><path d="m3137.5 1622.3s26.5-5.9 34.5 10.5c4.9 10.1 2.5 45.4 8.2 45.8s14.3 0 14.3 0" fill="none" stroke="#73325a" stroke-linecap="round" stroke-miterlimit="10" stroke-width="4"/><ellipse cx="3219.2" cy="1645.2" fill="#73325a" rx="4.7" ry="7.8"/><ellipse cx="3158.4" cy="1645.2" fill="#73325a" rx="4.7" ry="7.8"/><path d="m3112.4 1637.8c-.6-9.8-8.7-17.4-18.5-17.4" fill="none" stroke="#73325a" stroke-linecap="round" stroke-miterlimit="10" stroke-width="4"/><path d="m3265.9 1638.3c.6-10.4 9.2-18.5 19.5-18.5" fill="none" stroke="#73325a" stroke-linecap="round" stroke-miterlimit="10" stroke-width="4"/><path d="m1787.4 1831.9c0-6.5-.3-12.8-.8-18.7-6.1-2.7-44.6-21.2-54.3-54.5 0 0-29.2 59.1-72.6 52.3-.1 0-.2 0-.3-.1 0 0 0 0-.1 0l-10.5-5.4c-.2-.1-.3-.2-.5-.2-11.9-5.7-25.6 1.7-28 14.1-2.8-7.8-4.8-16.1-6-24.8-7.7-58.2 24.4-106.9 77.7-106.9 48.6 0 95.3 45.7 102.7 94 3 18.3-.1 35.4-7.3 50.2z" fill="#ffcf2d"/><path d="m1628.9 1838.9c-4.7 27.6-107.7-10.9-130.6 35.2-14.9 30.1 8.1 66.4-56.6 69.5-77.1 3.6-108.4 45.8-95.9 143.6l210.6-111.7 58.8-52.4 25.6-78.7z" fill="#ffcf2d"/><path d="m1748.9 1903.9v27.4l-65.1 39.4-68.6-47.5 25.6-78.7z" fill="#e57281"/><path d="m1652.6 1850.7 31.2 120 65.1-39.4v-27.4z" fill="#9a3b82"/><path d="m1787.4 1832.5c0 44.7-28.7 81-64.1 81-29 0-54.7-24.3-63.1-57.7l-29.3-15c-3.3-1.7-6-4.2-7.9-7.3-1.9-3-2.9-6.6-2.9-10.3 0-14.8 15.6-24.3 28.8-17.6l10.9 5.5v-.1c43.4 6.7 72.6-52.3 72.6-52.3 9.7 33.3 48.2 51.7 54.3 54.5.5 6.1.7 12.5.7 19.3z" fill="#e57281"/><path d="m1787.2 1823.2s-16.1-6.7-26 3.3c-12.3 12.4-9.6 48-9.6 48" fill="none" stroke="#9a3b82" stroke-linecap="round" stroke-miterlimit="10" stroke-width="4"/><path d="m1729.4 1821.1s-13.3-1-26.5 6" fill="none" stroke="#9a3b82" stroke-linecap="round" stroke-miterlimit="10" stroke-width="4"/><path d="m1650.7 1831c-1.1-6.6-5.9-12-12.3-14" fill="none" stroke="#9a3b82" stroke-linecap="round" stroke-miterlimit="10" stroke-width="4"/><ellipse cx="1720.5" cy="1844.1" fill="#9a3b82" rx="7.8" ry="4.7" transform="matrix(.2616 -.9652 .9652 .2616 -509.5139 3022.1785)"/><ellipse cx="1769.5" cy="1846.1" fill="#9a3b82" rx="7.8" ry="4.7" transform="matrix(.2616 -.9652 .9652 .2616 -475.2641 3070.9485)"/><path d="m1746.7 1886.5s-17.3 4.6-22.3-10" fill="none" stroke="#9a3b82" stroke-linecap="round" stroke-miterlimit="10" stroke-width="4"/><path d="m1487.2 1975.8h389.5c53.4 0 101.9 31.5 123.5 80.4l73.6 151.4-660.7 319.9-212.9-91.2 115.9-339.2c25.6-72.7 94.1-121.3 171.1-121.3z" fill="#fff" stroke="#fe5244" stroke-miterlimit="10" stroke-width="5"/><path d="m1669.8 2042.6-32.3-19.1 44.8-51h3.2l45.4 47.6-31.5 19.1 135.2 278.6-256.7 125.5z" fill="#fe5244"/><g fill="#fff" opacity=".2"><path d="m1616.2 2276.3v113.4h-4v-96z"/><path d="m1658.3 2092.4v297.2h-4v-279.8l2.5-10.8.9-4z"/><path d="m1658.3 1999.7v36.1l-4-2.3v-29.2z"/><path d="m1700.5 1988.3v395.1l-4 1.9v-401.2z"/><path d="m1742.7 2128.4v234.3l-4 2v-244.5z"/><path d="m1784.9 2215.3v126.8l-4 2v-137.1z"/><path d="m1827 2302.2v19.3l-4 1.9v-29.4z"/><path d="m1686.6 2390.2-8.2 4h-89.2l.9-4z"/><path d="m1772.8 2348-8.2 4h-165.8l1-4z"/><path d="m1830.7 2309.8h-222.2l.9-4h219.4z"/><path d="m1810.3 2267.7h-192.1l.9-4h189.2z"/><path d="m1789.8 2225.5h-162l1-4h159.1z"/><path d="m1769.3 2183.3h-131.8l.9-4h129z"/><path d="m1748.9 2141.2h-101.7l.9-4h98.8z"/><path d="m1728.4 2099h-71.6l.9-4h68.8z"/><path d="m1708 2056.8h-41.5l.9-4h38.6z"/><path d="m1725.7 2014.7h-80.5l3.5-4h73.2z"/></g><path d="m1473.3 2192.8-31.4 106" fill="none" stroke="#fe5244" stroke-miterlimit="10" stroke-width="5"/><path d="m1803.9 1975.6-74.1 42.4-44.3-45.5h-3.2l-43.8 49-82.1-45.9 59.8-52.4 67.6 47.5 65.1-39.4z" fill="#fff" stroke="#fe5244" stroke-linejoin="round" stroke-miterlimit="10" stroke-width="5"/><path d="m2200.5 2099.8-77.6 246.6h-472l77.6-246.6z" fill="#3fb1b5"/><path d="m1901.9 2346.4 77.6-246.6" fill="none" stroke="#fff" stroke-miterlimit="10" stroke-width="6"/><path d="m1737.4 2099.8s59.1-35.1 144.7-29.7c85.6 5.3 97.6 29.7 97.6 29.7z" fill="#fff" stroke="#3fb1b5" stroke-linecap="round" stroke-miterlimit="10" stroke-width="5"/><path d="m2183.4 2099.8s-111.4-49.2-203.7 0z" fill="#fff" stroke="#3fb1b5" stroke-linecap="round" stroke-miterlimit="10" stroke-width="5"/><path d="m1967.4 2604.2-229.4 181.2c-27.4 21.6-31 61.8-7.9 87.9l157.6 178.8s15-11.1 10-55.7c-7-61.7 10-119.4 10-119.4l339.5-242.1c52.5-37.4 84.1-97.6 85-162.1 1.3-87.6-104.9-132-166.4-69.7z" fill="#e57281"/><path d="m1907.6 2876.9s-16.9 57.7-10 119.4c5 44.7-10 55.8-10 55.8l-157.6-178.8c-23.1-26.2-19.4-66.3 7.9-87.9l73.6-58.2c2.2-1.6 4.4-3.3 6.6-5l93.6-74 55.6-44s-3.1 73.1 31.3 207.8z" fill="#fff" stroke="#9a3b82" stroke-linecap="round" stroke-miterlimit="10" stroke-width="6"/><path d="m1901.3 3002.3c1.9 17.3.7 29.8-1.6 38.6-.5 2.1-1.1 3.9-1.8 5.6-3.9 10.3-9 13.7-9 13.7l-163.4-185.3c-21.2-24.1-20.6-59.6-.3-82.9 2.5-2.9 5.4-5.7 8.6-8.2l5.3-4.2 46-36.3c-3 20 9.9 53.5 34.7 85.1 31.4 40 73.1 61.3 91.3 50.3-2.9 10.6-16.2 66.5-9.8 123.6z" fill="#ffcf2d"/><path d="m1899.8 3040.9c-.5 2.1-1.1 3.9-1.8 5.6l-162.2-184c-12-13.6-17.7-31.1-16.1-49.2.7-7.5 2.6-14.8 5.6-21.4 2.5-2.9 5.4-5.7 8.6-8.2l5.3-4.2c-8.3 9.5-13.4 21.3-14.5 34.2-1.5 16.7 3.8 32.9 14.9 45.5z" fill="#fff"/><path d="m1904.5 2909.1s-44-17.5-49.9 0c-5.8 17.5 46.6 28.6 46.6 28.6z" fill="#fff"/><path d="m2185.4 2366.9v547.9c-63.7 64.7-148.3 29.9-148.3 29.9-74.7-215-69.7-334.4-69.7-334.4l-55.6 43.9c-142.2-88.8-153.8-293.1-154.1-298l231.7-112.1c90.7-43.9 196 22.1 196 122.8z" fill="#e57281"/><path d="m1989.5 2244c90.6-43.8 195.9 22.2 195.9 122.8v547.9c-63.7 64.7-148.3 29.9-148.3 29.9-74.6-215-69.7-334.5-69.7-334.5" fill="none" stroke="#9a3b82" stroke-linecap="round" stroke-miterlimit="10" stroke-width="6"/><path d="m1911.8 2654.1-93.6 74c-167.8 132.7-414.6 13.2-414.6-200.7l354.1-171.4v.1c.3 5 12 209.3 154.1 298z" fill="#fe5244"/><g fill="#fff" opacity=".2"><path d="m1447.8 2506.1v166.1c-1.4-2-2.7-4-4-6v-158.2z"/><path d="m1490 2485.7v233.7c-1.3-1.2-2.7-2.4-4-3.6v-228.2z"/><path d="m1532.1 2465.3v284.1c-1.3-.8-2.7-1.5-4-2.3v-279.9z"/><path d="m1574.3 2444.9v323.9c-1.3-.5-2.7-.9-4-1.4v-320.5z"/><path d="m1616.5 2424.5v355.5c-1.3-.2-2.7-.5-4-.7v-352.8z"/><path d="m1658.6 2404v379.8c-1.3 0-2.7 0-4-.1v-377.7z"/><path d="m1700.8 2383.6v397c-1.3.2-2.7.4-4 .6v-395.6z"/><path d="m1743 2363.2v406.7c-1.3.5-2.7.9-4 1.4v-406.1z"/><path d="m1785.1 2484.1v266.5c-1.3.8-2.7 1.5-4 2.2v-280.4c.2.7.4 1.4.7 2 .4 1.3.9 2.7 1.3 4 .7 1.9 1.4 3.8 2 5.7z"/><path d="m1827.3 2570.1v150.9l-4 3.2v-160.3c1.3 2 2.6 4.1 4 6.2z"/><path d="m1869.5 2621.1v68.2h-2.1l-1.9 1.5v-73.7c1.3 1.4 2.6 2.7 4 4z"/><path d="m1743.7 2769.6c-.3.1-.5.2-.8.3-1.3.5-2.7.9-4 1.4-2.5.8-5 1.6-7.6 2.4h-142.2c-4.2-1.2-8.4-2.6-12.6-4h167.2z"/><path d="m1819.1 2727.4-.9.7c-1.4 1.1-2.8 2.2-4.2 3.3h-309.2c-1.8-1.3-3.5-2.6-5.2-4z"/><path d="m1872.4 2685.3-3 2.3v1.7h-408.8c-1.1-1.3-2.2-2.7-3.2-4z"/><path d="m1901.2 2647.1h-468.5c-.7-1.3-1.4-2.7-2.1-4h465c1.8 1.4 3.7 2.7 5.6 4z"/><path d="m1854 2604.9h-438.8c-.4-1.3-.8-2.7-1.2-4h436.6c1 1.4 2.2 2.7 3.4 4z"/><path d="m1822.6 2562.8h-416.7c-.2-1.3-.3-2.7-.5-4h414.7c.9 1.3 1.7 2.6 2.5 4z"/><path d="m1800 2520.6h-382.1l8.3-4h372c.5 1.3 1.1 2.7 1.8 4z"/><path d="m1783.2 2478.4h-278.2l8.3-4h268.6c.3 1.4.8 2.7 1.3 4z"/><path d="m1770.8 2436.3h-178.8l8.3-4h169.5c.4 1.3.7 2.6 1 4z"/><path d="m1762.2 2394.1h-83.1l8.3-4h74.2c.2 1.3.4 2.6.6 4z"/></g><path d="m1757.7 2356.1c.3 5 11.9 209.3 154.1 298.1" fill="none" stroke="#fff" stroke-miterlimit="10" stroke-width="6"/><path d="m2185.4 2719v195.8c-63.7 64.7-148.3 29.9-148.3 29.9-32.7-94.2-50.1-170.1-59.4-225.6h207.7z" fill="#fff"/><path d="m2037 2944.6c-32.7-94.2-50.1-170.1-59.4-225.6h207.7v195.8" fill="none" stroke="#9a3b82" stroke-linecap="round" stroke-miterlimit="10" stroke-width="6"/><path d="m2334.7 3058.1h-295.5c-13.8 0-24.3-12.3-22.1-25.9l.5-3 1.8-10.8 12.8-78.4s90.1 36.3 156.5-31.1c0 0 20.8 53.6 107.6 93 20.4 9.3 30 23.1 34.5 34.8.7 1.7 1.2 3.4 1.7 5 2.7 9.4 2.2 16.4 2.2 16.4z" fill="#ffcf2d"/><path d="m2332.5 3041.6h-293.3c-7.3 0-14.2-3.2-18.9-8.8-1-1.2-1.9-2.4-2.6-3.7l1.8-10.8c.3 4.1 1.9 8.1 4.7 11.3 3.8 4.4 9.3 7 15.1 7h291.6c.6 1.7 1.2 3.4 1.6 5z" fill="#fff"/><path d="m2234.5 2964.4c-32.8 23.4-83.3 16.7-86.7 6.6-3.5-10 48.9-17.3 55.8-38.1 7.3 9.1 16.7 20.1 30.9 31.5z" fill="#fff"/><path d="m1967.4 2610.2c0-117.5 31-185.7 31-185.7" fill="none" stroke="#9a3b82" stroke-linecap="round" stroke-miterlimit="10" stroke-width="6"/><path d="m1683.8 2241.9-410.4 96.5c-52 12.2-88.7 58.6-88.7 112 0 84.9 88.9 140.6 165.3 103.5l397.1-192.8c6.8-3.3 12.2-9.1 14.9-16.2l44-112.9c1.8-4.5-2-9.3-6.9-8.6l-7 1c-11.1 1.6-21.1 7.7-27.6 16.9l-17.9 26.8c-3.3 4.9-8.8 7.8-14.7 7.8h-41.9c-8.5 0-14.6-8.3-12-16.4z" fill="#e57281"/><path d="m1679.8 2242.9-406.4 96.5c-52 12.2-88.7 58.6-88.7 112 0 84.9 88.9 140.6 165.3 103.5l397.1-192.8c6.8-3.3 12.2-9.1 14.9-16.2l44-112.9c1.8-4.5-2-9.3-6.9-8.6l-7 1c-11.1 1.6-21.1 7.7-27.6 16.9l-17.9 26.8c-3.3 4.9-8.8 7.8-14.7 7.8h-45.9c-8.5 0-14.6-8.3-12-16.4z" fill="none" stroke="#fff" stroke-miterlimit="10" stroke-width="6"/><path d="m1696 2308.9h61.3c10.1 0 19.3-5.5 24.2-14.4" fill="none" stroke="#fff" stroke-linecap="round" stroke-miterlimit="10" stroke-width="5"/><path d="m1682 2344.9h61.3c10.1 0 19.3-5.5 24.2-14.4" fill="none" stroke="#fff" stroke-linecap="round" stroke-miterlimit="10" stroke-width="5"/></svg>